# AST/ASF file generated using VICON BodyLanguage
# -----------------------------------------------
:version 1.10
:name VICON
:units
  mass 1.0
  length 0.45
  angle deg
:documentation
   .ast/.asf automatically generated from VICON data using
   VICON BodyBuilder and BodyLanguage model FoxedUp or BRILLIANT.MOD
:root
   order TX TY TZ RX RY RZ
   axis XYZ
   position 0 0 0  
   orientation 0 0 0 
:bonedata
  begin
     id 1 
     name lhipjoint
     direction 0.547975 -0.797114 0.253638 
     length 2.36201 
     axis 0 0 0  XYZ
  end
  begin
     id 2 
     name lfemur
     direction 0.34202 -0.939693 0  
     length 7.69075  
     axis 0 0 20  XYZ
    dof rx ry rz
    limits (-160.0 20.0)
           (-70.0 70.0)
           (-60.0 70.0)
  end
  begin
     id 3 
     name ltibia
     direction 0.34202 -0.939693 0   
     length 7.91399   
     axis 0 0 20   XYZ
    dof rx
    limits (-10.0 170.0)
  end
  begin
     id 4 
     name lfoot
     direction 0.0705293 -0.193778 0.978507   
     length 2.13618   
     axis -90 7.62852e-016 20   XYZ
    dof rx rz
    limits (-45.0 90.0)
           (-70.0 20.0)
  end
  begin
     id 5 
     name ltoes
     direction 1.53592e-011 -4.21925e-011 1   
     length 1.07518   
     axis -90 7.62852e-016 20   XYZ
    dof rx
    limits (-90.0 20.0)
  end
  begin
     id 6 
     name rhipjoint
     direction -0.57 -0.782963 0.249136   
     length 2.4047  
     axis 0 0 0  XYZ 
  end
  begin
     id 7 
     name rfemur
     direction -0.34202 -0.939693 0   
     length 7.51486   
     axis 0 0 -20   XYZ
    dof rx ry rz
    limits (-160.0 20.0)
           (-70.0 70.0)
           (-70.0 60.0)
  end
  begin
     id 8 
     name rtibia
     direction -0.34202 -0.939693 0   
     length 8.08317   
     axis 0 0 -20   XYZ
    dof rx
    limits (-10.0 170.0)
 end
 begin
     id 9 
     name rfoot
     direction -0.104954 -0.281256 0.953876   
     length 2.30343  
     axis -90 -7.62852e-016 -20   XYZ
    dof rx rz
    limits (-45.0 90.0)
           (-20.0 70.0)
  end
  begin
     id 10 
     name rtoes
     direction -1.53556e-011 -4.21922e-011 1   
     length 1.14803   
     axis -90 -7.62852e-016 -20   XYZ
    dof rx
    limits (-90.0 20.0)
  end
  begin
     id 11 
     name lowerback
     direction -0.0152855 0.99353 -0.11254   
     length 2.05311   
     axis 0 0 0   XYZ
    dof rx ry rz
    limits (-20.0 45.0)
           (-30.0 30.0)
           (-30.0 30.0)
  end
  begin
     id 12 
     name upperback
     direction -0.00157509 0.999443 -0.033332   
     length 2.06353   
     axis 0 0 0   XYZ
    dof rx ry rz
    limits (-20.0 45.0)
           (-30.0 30.0)
           (-30.0 30.0)
  end
  begin
     id 13 
     name thorax
     direction 0.00577788 0.999804 0.0189484   
     length 2.08472   
     axis 0 0 0   XYZ
    dof rx ry rz
    limits (-20.0 45.0)
           (-30.0 30.0)
           (-30.0 30.0)
  end
  begin
     id 14 
     name lowerneck
     direction -1.09301e-005 0.994719 0.10264   
     length 1.76249   
     axis 0 0 0   XYZ
    dof rx ry rz
    limits (-20.0 45.0)
           (-30.0 30.0)
           (-30.0 30.0)
  end
  begin
     id 15 
     name upperneck
     direction 0.0495018 0.988526 -0.142706   
     length 1.77897   
     axis 0 0 0   XYZ
    dof rx ry rz
    limits (-20.0 45.0)
           (-30.0 30.0)
           (-30.0 30.0)
  end
  begin
     id 16
     name head
     direction 0.0142736 0.998114 -0.0597101  
     length 1.78934  
     axis 0 0 0   XYZ
    dof rx ry rz
    limits (-20.0 45.0)
           (-30.0 30.0)
           (-30.0 30.0)
  end
  begin
     id 17 
     name lclavicle
     direction 0.918111 0.396107 -0.0130883  
     length 3.37276  
     axis 0 0 0   XYZ
    dof ry rz
    limits (-20.0 10.0)
           (0.0 20.0)
  end
  begin
     id 18 
     name lhumerus
     direction 1 -4.48975e-011 -3.26108e-027   
     length 5.34298   
     axis 180 -30 -90   XYZ
    dof rx ry rz
    limits (-60.0 90.0)
           (-90.0 90.0)
           (-90.0 90.0)
  end
  begin
     id 19
     name lradius
     direction 1 -4.48964e-011 -8.84413e-028   
     length 3.67262   
     axis 180 -30 -90   XYZ
    dof rx
    limits (-10.0 170.0)
  end
  begin
     id 20
     name lwrist
     direction 1 -4.48991e-011 -1.24264e-027   
     length 1.83631   
     axis -2.17013e-015 90 90   XYZ
    dof ry
    limits (-180.0 0.0)
 end
  begin
     id 21 
     name lhand
     direction 1 -4.48855e-011 -2.48528e-027   
     length 0.599298   
     axis 1.58582e-015 90 90   XYZ
    dof rx rz
    limits (-90.0 90.0)
           (-45.0 45.0)
  end
  begin
     id 22 
     name lfingers
     direction 1 -4.48811e-011 -4.97056e-027   
     length 0.48317   
     axis 3.17164e-015 90 90   XYZ
    dof rx
    limits (0.0 90.0)
  end
  begin
     id 23
     name lthumb
     direction 0.707107 -6.34882e-011 0.707107   
     length 0.693738   
     axis -90 45 2.85299e-015   XYZ
    dof rx rz
    limits (-45.0 45.0)
           (-45.0 45.0)
  end
  begin
     id 24 
     name rclavicle
     direction -0.920511 0.384752 -0.0680135   
     length 3.43787  
     axis 0 0 0   XYZ 
    dof ry rz
    limits (-10.0 20.0)
           (-20.0 0.0)
  end
  begin
     id 25 
     name rhumerus
     direction -0.999976 -0.00330524 0.00603274  
     length 5.5498   
     axis 180 30 90   XYZ
    dof rx ry rz
    limits (-90.0 60.0)
           (-90.0 90.0)
           (-90.0 90.0)
  end
  begin
     id 26 
     name rradius
     direction -1 -4.48967e-011 8.62438e-027   
     length 3.69401   
     axis 180 30 90   XYZ
    dof rx
    limits (-10.0 170.0)
  end
  begin
     id 27 
     name rwrist
     direction -1 -4.4897e-011 9.54866e-027   
     length 1.84701   
     axis -7.69462e-015 -90 -90   XYZ
    dof ry
    limits (-180.0 0.0)
  end
  begin
     id 28
     name rhand
     direction -1 -4.48982e-011 1.90973e-026   
     length 0.638113   
     axis -1.21857e-014 -90 -90   XYZ
    dof rx rz
    limits (-90.0 90.0)
           (-45.0 45.0)
  end
  begin
     id 29
     name rfingers
     direction -1 -4.48936e-011 3.81946e-026   
     length 0.514463   
     axis -2.43714e-014 -90 -90   XYZ
    dof rx
    limits (0.0 90.0)
  end
  begin
     id 30
     name rthumb
     direction -0.707107 -6.34942e-011 0.707107   
     length 0.738669   
     axis -90 -45 -2.85299e-015   XYZ
    dof rx rz
    limits (-45.0 45.0)
           (-45.0 45.0)
  end
:hierarchy
  begin
    root lhipjoint rhipjoint lowerback
    lhipjoint lfemur
    lfemur ltibia
    ltibia lfoot
    lfoot ltoes
    rhipjoint rfemur
    rfemur rtibia
    rtibia rfoot
    rfoot rtoes
    lowerback upperback
    upperback thorax
    thorax lowerneck lclavicle rclavicle
    lowerneck upperneck
    upperneck head
    lclavicle lhumerus
    lhumerus lradius
    lradius lwrist
    lwrist lhand lthumb
    lhand lfingers
    rclavicle rhumerus
    rhumerus rradius
    rradius rwrist
    rwrist rhand rthumb
    rhand rfingers
  end

#!OML:ASF F:\twosubjects\two\Thursday\Session 1\Rory.ASF
:FULLY-SPECIFIED
:DEGREES
66
root 10.383 17.9385 -9.42681 2.72011 -3.57135 4.71171
lowerback 1.96552 1.15588 0.0563848
upperback 2.15291 1.57762 -4.51776
thorax 1.24102 0.829507 -4.70408
lowerneck -9.35757 -0.0500888 2.14445
upperneck 28.2363 -1.41924 3.18688
head 10.6016 -0.0623711 0.604244
rclavicle 2.09718e-014 1.27222e-014
rhumerus -32.7303 -13.6925 -81.1752
rradius 34.0408
rwrist 17.2917
rhand -25.9028 24.4261
rfingers 7.12502
rthumb 0.63965 -5.55265
lclavicle 2.09718e-014 1.27222e-014
lhumerus -37.6879 18.4457 71.3863
lradius 28.0345
lwrist -26.2641
lhand -12.1743 27.7084
lfingers 7.12502
lthumb 13.8891 57.2246
rfemur -14.1732 -0.092707 19.6978
rtibia 28.4229
rfoot -16.1305 -9.55544
rtoes -2.33847
lfemur -15.4364 -1.6448 -17.8535
ltibia 19.8822
lfoot -9.72681 9.04886
ltoes 15.2996
67
root 10.3891 17.9426 -9.38373 2.85123 -3.56276 4.70898
lowerback 1.60409 1.26233 0.418123
upperback 2.16818 1.73479 -4.69162
thorax 1.49016 0.919095 -5.08404
lowerneck -9.15431 -0.100742 1.98724
upperneck 28.5093 -1.52413 3.41838
head 10.6678 -0.0964983 0.704826
rclavicle -6.4605e-015 0
rhumerus -32.2332 -14.1661 -81.1677
rradius 33.9215
rwrist 17.3735
rhand -25.3456 23.7884
rfingers 7.12502
rthumb 1.17777 -6.18814
lclavicle -6.4605e-015 0
lhumerus -37.3795 18.2247 71.6939
lradius 28.6543
lwrist -24.3146
lhand -12.1195 28.088
lfingers 7.12502
lthumb 13.9418 57.6006
rfemur -14.0584 -0.143658 19.6743
rtibia 28.275
rfoot -16.0137 -9.57643
rtoes -3.39557
lfemur -15.4769 -1.40137 -17.8536
ltibia 19.0216
lfoot -9.60102 8.23378
ltoes 12.7765
68
root 10.3912 17.9465 -9.3442 2.79903 -3.60327 4.80153
lowerback 1.33743 1.29467 0.506134
upperback 2.20703 1.78767 -4.80909
thorax 1.69211 0.951657 -5.25075
lowerneck -8.72915 -0.108893 1.72423
upperneck 28.7176 -1.51297 3.55784
head 10.6634 -0.104095 0.803666
rclavicle 5.76476e-015 -7.15625e-015
rhumerus -31.3923 -14.6051 -81.1756
rradius 33.337
rwrist 17.6052
rhand -24.2273 23.3621
rfingers 7.12502
rthumb 2.25782 -6.60572
lclavicle 5.76476e-015 -7.15625e-015
lhumerus -37.4082 18.4184 71.7792
lradius 29.3694
lwrist -22.5996
lhand -12.8872 27.9646
lfingers 7.12502
lthumb 13.2019 57.5266
rfemur -13.7897 0.0752132 19.5597
rtibia 28.1636
rfoot -15.6779 -9.791
rtoes -4.91427
lfemur -15.3399 -1.67455 -17.8697
ltibia 18.3687
lfoot -9.80511 7.76724
ltoes 11.8069
69
root 10.3952 17.9443 -9.31574 2.67242 -3.68884 4.5879
lowerback 1.27629 1.29795 0.805424
upperback 2.14065 1.79189 -4.81019
thorax 1.66822 0.957664 -5.42186
lowerneck -8.10721 -0.0872064 1.5672
upperneck 29.0674 -1.44808 3.5741
head 10.6711 -0.0904675 0.847425
rclavicle 2.5345e-014 6.36111e-015
rhumerus -30.8334 -14.8264 -81.2001
rradius 32.7986
rwrist 17.6904
rhand -23.5601 23.1614
rfingers 7.12502
rthumb 2.90224 -6.79859
lclavicle 2.5345e-014 6.36111e-015
lhumerus -37.6973 18.4244 71.7627
lradius 30.25
lwrist -22.4858
lhand -13.3599 28.0193
lfingers 7.12502
lthumb 12.7462 57.6103
rfemur -13.5165 0.30263 19.7918
rtibia 28.123
rfoot -15.5248 -9.99202
rtoes -5.02885
lfemur -15.0527 -2.21361 -17.4886
ltibia 17.7313
lfoot -9.9631 7.84587
ltoes 12.3954
70
root 10.4027 17.9463 -9.28814 2.42324 -3.84969 4.77498
lowerback 1.28403 1.354 0.69133
upperback 2.03119 1.86352 -4.91954
thorax 1.55841 0.989699 -5.4727
lowerneck -7.53274 -0.043416 1.48166
upperneck 29.8178 -1.38762 3.6034
head 10.8414 -0.0625198 0.887755
rclavicle -1.33186e-014 6.12257e-014
rhumerus -30.681 -15.0335 -81.189
rradius 32.4645
rwrist 17.7607
rhand -23.6389 23.0716
rfingers 7.12502
rthumb 2.82606 -6.88941
lclavicle -1.33186e-014 6.12257e-014
lhumerus -37.9144 17.4491 72.1475
lradius 30.7616
lwrist -21.547
lhand -13.2547 28.8308
lfingers 7.12502
lthumb 12.8476 58.4154
rfemur -13.1907 0.441722 19.56
rtibia 28.1203
rfoot -15.6207 -10.0796
rtoes -5.1276
lfemur -14.6271 -2.93804 -17.5687
ltibia 17.1471
lfoot -10.0722 8.31662
ltoes 14.0595
71
root 10.4186 17.9535 -9.257 2.27091 -4.00063 5.19258
lowerback 1.05112 1.41389 0.411582
upperback 1.92613 1.94598 -5.08384
thorax 1.58576 1.02724 -5.48059
lowerneck -7.032 0.0227086 1.69133
upperneck 30.6667 -1.25871 3.29876
head 11.0633 -0.00670293 0.764181
rclavicle 2.9122e-014 -7.4743e-014
rhumerus -30.6768 -15.4975 -81.1314
rradius 32.4464
rwrist 17.6191
rhand -22.6176 22.0176
rfingers 7.12502
rthumb 3.81237 -7.92804
lclavicle 2.9122e-014 -7.4743e-014
lhumerus -38.3082 16.8497 72.5424
lradius 31.3755
lwrist -19.7935
lhand -13.0046 29.7115
lfingers 7.12502
lthumb 13.0888 59.2808
rfemur -12.9935 0.287301 19.0116
rtibia 28.1473
rfoot -15.7446 -9.83557
rtoes -5.59672
lfemur -14.3868 -3.35078 -18.0121
ltibia 16.6933
lfoot -9.94628 8.62188
ltoes 16.1562
72
root 10.4338 17.9572 -9.21795 2.14626 -4.09002 5.41539
lowerback 0.554771 1.4113 0.2404
upperback 1.94781 1.95681 -5.09919
thorax 1.88284 1.03407 -5.38592
lowerneck -6.55957 0.12825 1.99505
upperneck 31.241 -1.00302 2.74462
head 11.1847 0.0845331 0.542374
rclavicle -8.64713e-015 -1.19271e-014
rhumerus -30.6508 -15.8423 -81.04
rradius 32.9685
rwrist 17.0007
rhand -20.2299 19.845
rfingers 7.12502
rthumb 6.1179 -10.0467
lclavicle -8.64713e-015 -1.19271e-014
lhumerus -38.9735 17.4721 72.5914
lradius 32.6843
lwrist -19.2379
lhand -12.5121 30.5034
lfingers 7.12502
lthumb 13.5635 60.0416
rfemur -12.7555 -0.0517523 18.6726
rtibia 28.1918
rfoot -15.8887 -9.46589
rtoes -5.66215
lfemur -14.1837 -2.97619 -18.3317
ltibia 16.3641
lfoot -9.85634 7.98051
ltoes 17.609
73
root 10.4403 17.9524 -9.18107 1.76962 -4.15825 5.55089
lowerback 0.275561 1.32644 -0.126764
upperback 2.01184 1.85318 -4.938
thorax 2.07762 0.976318 -5.00151
lowerneck -5.89139 0.31661 2.14648
upperneck 31.7592 -0.585249 2.18425
head 11.2476 0.22847 0.359813
rclavicle 1.19271e-014 -2.38542e-015
rhumerus -30.6945 -15.753 -80.8899
rradius 33.4355
rwrist 16.6731
rhand -19.2266 18.9629
rfingers 7.12502
rthumb 7.0864 -10.8984
lclavicle 1.19271e-014 -2.38542e-015
lhumerus -39.6167 17.8774 72.7979
lradius 33.8495
lwrist -18.6249
lhand -12.33 31.1917
lfingers 7.12502
lthumb 13.739 60.7181
rfemur -12.2149 -0.241671 18.4744
rtibia 28.1762
rfoot -16.0779 -9.21535
rtoes -5.84422
lfemur -13.7859 -2.46613 -18.5643
ltibia 16.3439
lfoot -9.83921 7.04034
ltoes 17.9037
74
root 10.4482 17.9443 -9.16025 1.4311 -4.12251 5.5493
lowerback 0.33727 1.15479 -0.375073
upperback 1.86766 1.61291 -4.71606
thorax 1.85848 0.844967 -4.634
lowerneck -5.34474 0.521733 1.9647
upperneck 32.9119 -0.196613 1.94016
head 11.5939 0.363689 0.352019
rclavicle -2.26615e-014 1.82882e-014
rhumerus -30.9049 -15.3827 -80.7253
rradius 33.532
rwrist 16.7536
rhand -19.5433 19.2117
rfingers 7.12502
rthumb 6.78075 -10.6597
lclavicle -2.26615e-014 1.82882e-014
lhumerus -40.4337 17.6132 73.2663
lradius 34.7105
lwrist -16.891
lhand -12.4723 31.7431
lfingers 7.12502
lthumb 13.6018 61.2788
rfemur -11.7208 -0.224325 18.4493
rtibia 28.0924
rfoot -16.2003 -9.2366
rtoes -6.33056
lfemur -13.6195 -2.33359 -18.6226
ltibia 16.6712
lfoot -9.80532 6.45724
ltoes 18.1265
75
root 10.46 17.9386 -9.15594 1.46454 -4.00602 5.10231
lowerback 0.319153 0.966015 -0.0413222
upperback 1.54833 1.34263 -4.488
thorax 1.51996 0.705683 -4.59032
lowerneck -5.0266 0.641478 1.83433
upperneck 34.3499 0.0206114 1.79296
head 12.1178 0.438696 0.354867
rclavicle -2.00276e-014 2.14687e-014
rhumerus -31.2446 -15.1402 -80.6858
rradius 33.745
rwrist 16.7882
rhand -19.402 19.1583
rfingers 7.12502
rthumb 6.91707 -10.7087
lclavicle -2.00276e-014 2.14687e-014
lhumerus -41.1646 17.1706 73.6895
lradius 35.3182
lwrist -14.8731
lhand -13.7704 31.2067
lfingers 7.12502
lthumb 12.3505 60.8219
rfemur -11.637 0.154184 18.9397
rtibia 28.0171
rfoot -16.173 -9.7019
rtoes -6.45422
lfemur -13.9806 -2.56157 -18.1177
ltibia 17.2383
lfoot -10.0453 6.43005
ltoes 18.1682
76
root 10.4697 17.9351 -9.1524 1.48856 -4.07469 4.65967
lowerback 0.15504 0.830385 0.253043
upperback 1.30519 1.15208 -4.28359
thorax 1.34788 0.607626 -4.54503
lowerneck -4.50187 0.780679 2.17896
upperneck 35.2969 0.368528 1.13986
head 12.4115 0.564305 0.0885206
rclavicle -1.74931e-014 2.06736e-014
rhumerus -31.5977 -14.8961 -80.7911
rradius 34.2206
rwrist 16.7291
rhand -19.4026 18.8717
rfingers 7.12502
rthumb 6.91648 -10.9953
lclavicle -1.74931e-014 2.06736e-014
lhumerus -41.4414 16.9103 73.9839
lradius 35.415
lwrist -13.6002
lhand -16.2539 29.2472
lfingers 7.12502
lthumb 9.95525 58.9918
rfemur -11.5896 0.670885 19.4261
rtibia 27.9536
rfoot -16.1298 -10.066
rtoes -5.87662
lfemur -14.3379 -2.50589 -17.6199
ltibia 17.9823
lfoot -10.4797 6.44252
ltoes 16.9417
77
root 10.4789 17.9268 -9.1482 1.31749 -4.36279 4.57663
lowerback -0.000415065 0.851275 0.233735
upperback 1.19222 1.17844 -4.2028
thorax 1.3188 0.618362 -4.44767
lowerneck -4.04869 0.8974 2.42441
upperneck 36.2125 0.632952 0.729475
head 12.7169 0.669929 -0.0807005
rclavicle -2.12203e-014 1.35174e-014
rhumerus -31.844 -14.6685 -80.9012
rradius 34.6147
rwrist 16.4631
rhand -21.4294 19.9033
rfingers 7.12502
rthumb 4.95979 -10.0187
lclavicle -2.12203e-014 1.35174e-014
lhumerus -41.6798 16.8763 74.2584
lradius 35.889
lwrist -13.6411
lhand -16.5997 28.8679
lfingers 7.12502
lthumb 9.62162 58.6282
rfemur -11.4248 1.16731 19.5072
rtibia 27.9265
rfoot -16.0514 -10.2334
rtoes -4.57013
lfemur -14.4727 -1.71518 -17.5988
ltibia 18.7632
lfoot -10.8469 6.35346
ltoes 15.4922
78
root 10.4875 17.916 -9.14499 0.99674 -4.43842 4.43753
lowerback -0.0337541 0.959949 0.381574
upperback 1.21186 1.32399 -4.17646
thorax 1.37215 0.693773 -4.50139
lowerneck -3.96085 0.880717 2.49061
upperneck 37.3282 0.601067 0.701224
head 13.1947 0.670557 -0.102388
rclavicle 9.44227e-015 2.22639e-014
rhumerus -32.0895 -14.8162 -80.9143
rradius 35.0886
rwrist 16.005
rhand -24.2735 22.6344
rfingers 7.12502
rthumb 2.2132 -7.33385
lclavicle 9.44227e-015 2.22639e-014
lhumerus -41.8954 16.8399 74.5714
lradius 36.7501
lwrist -14.3441
lhand -15.5813 29.7087
lfingers 7.12502
lthumb 10.6041 59.4212
rfemur -11.0736 1.69469 19.6834
rtibia 27.9652
rfoot -16.0223 -10.68
rtoes -3.95641
lfemur -14.4001 -1.15015 -17.5019
ltibia 19.4711
lfoot -11.2747 6.7204
ltoes 15.2219
79
root 10.5142 17.9238 -9.14703 1.28131 -4.62931 4.52485
lowerback -0.467525 1.10993 0.671228
upperback 1.0614 1.52658 -4.29475
thorax 1.48907 0.799342 -4.77936
lowerneck -3.96276 0.855004 2.4188
upperneck 38.2286 0.560046 0.733745
head 13.6064 0.654611 -0.0768526
rclavicle -1.54555e-014 -1.74931e-014
rhumerus -32.2266 -14.9271 -80.9526
rradius 35.7357
rwrist 15.2045
rhand -25.3143 23.6613
rfingers 7.12502
rthumb 1.208 -6.31506
lclavicle -1.54555e-014 -1.74931e-014
lhumerus -41.9013 16.6408 74.9049
lradius 37.303
lwrist -14.6324
lhand -15.6433 29.1825
lfingers 7.12502
lthumb 10.5442 58.898
rfemur -11.5126 1.53816 19.4538
rtibia 28.0165
rfoot -15.9578 -10.2777
rtoes -4.52394
lfemur -14.9674 -1.19731 -17.6507
ltibia 20.1299
lfoot -11.508 7.37762
ltoes 15.471
80
root 10.5242 17.925 -9.14048 0.927107 -4.79557 4.71212
lowerback -0.346458 1.1734 0.590757
upperback 1.05127 1.61108 -4.3992
thorax 1.41911 0.840539 -4.84371
lowerneck -3.80884 0.885439 2.27053
upperneck 39.0941 0.539374 0.981587
head 13.9789 0.660221 0.0517919
rclavicle 2.88238e-015 -7.95139e-016
rhumerus -32.3171 -14.7078 -81.1569
rradius 36.1497
rwrist 14.4924
rhand -25.9583 23.0344
rfingers 7.12502
rthumb 0.586027 -6.94453
lclavicle 2.88238e-015 -7.95139e-016
lhumerus -41.9477 16.1717 75.1675
lradius 37.705
lwrist -14.6867
lhand -15.3807 28.8964
lfingers 7.12502
lthumb 10.7976 58.5989
rfemur -11.1584 1.61918 19.2069
rtibia 28.1114
rfoot -16.1306 -10.0734
rtoes -4.3022
lfemur -14.7444 -1.1986 -17.8664
ltibia 20.8312
lfoot -11.5853 7.55547
ltoes 15.0368
